<svg id="visual" viewBox="0 0 540 960" width="540" height="960" xmlns="http://www.w3.org/2000/svg" xmlns:xlink="http://www.w3.org/1999/xlink" version="1.1"><path d="M0 59L15 59C30 59 60 59 90 59C120 59 150 59 180 59C210 59 240 59 270 59C300 59 330 59 360 59C390 59 420 59 450 59C480 59 510 59 525 59L540 59L540 0L525 0C510 0 480 0 450 0C420 0 390 0 360 0C330 0 300 0 270 0C240 0 210 0 180 0C150 0 120 0 90 0C60 0 30 0 15 0L0 0Z" fill="#c62368"></path><path d="M0 135L15 135C30 135 60 135 90 135C120 135 150 135 180 135C210 135 240 135 270 135C300 135 330 135 360 133.5C390 132 420 129 450 127.5C480 126 510 126 525 126L540 126L540 57L525 57C510 57 480 57 450 57C420 57 390 57 360 57C330 57 300 57 270 57C240 57 210 57 180 57C150 57 120 57 90 57C60 57 30 57 15 57L0 57Z" fill="#db1b69"></path><path d="M0 366L15 361.2C30 356.3 60 346.7 90 345C120 343.3 150 349.7 180 349.7C210 349.7 240 343.3 270 340.2C300 337 330 337 360 333.8C390 330.7 420 324.3 450 322.7C480 321 510 324 525 325.5L540 327L540 124L525 124C510 124 480 124 450 125.5C420 127 390 130 360 131.5C330 133 300 133 270 133C240 133 210 133 180 133C150 133 120 133 90 133C60 133 30 133 15 133L0 133Z" fill="#ef0f68"></path><path d="M0 491L15 489.3C30 487.7 60 484.3 90 482.7C120 481 150 481 180 479.3C210 477.7 240 474.3 270 474.3C300 474.3 330 477.7 360 476.2C390 474.7 420 468.3 450 465.2C480 462 510 462 525 462L540 462L540 325L525 323.5C510 322 480 319 450 320.7C420 322.3 390 328.7 360 331.8C330 335 300 335 270 338.2C240 341.3 210 347.7 180 347.7C150 347.7 120 341.3 90 343C60 344.7 30 354.3 15 359.2L0 364Z" fill="#ff0066"></path><path d="M0 711L15 711C30 711 60 711 90 712.7C120 714.3 150 717.7 180 716.2C210 714.7 240 708.3 270 708.3C300 708.3 330 714.7 360 714.7C390 714.7 420 708.3 450 706.7C480 705 510 708 525 709.5L540 711L540 460L525 460C510 460 480 460 450 463.2C420 466.3 390 472.7 360 474.2C330 475.7 300 472.3 270 472.3C240 472.3 210 475.7 180 477.3C150 479 120 479 90 480.7C60 482.3 30 485.7 15 487.3L0 489Z" fill="#ff0066"></path><path d="M0 779L15 779C30 779 60 779 90 780.5C120 782 150 785 180 783.3C210 781.7 240 775.3 270 775.3C300 775.3 330 781.7 360 781.7C390 781.7 420 775.3 450 773.8C480 772.3 510 775.7 525 777.3L540 779L540 709L525 707.5C510 706 480 703 450 704.7C420 706.3 390 712.7 360 712.7C330 712.7 300 706.3 270 706.3C240 706.3 210 712.7 180 714.2C150 715.7 120 712.3 90 710.7C60 709 30 709 15 709L0 709Z" fill="#ef0f68"></path><path d="M0 855L15 856.7C30 858.3 60 861.7 90 863.3C120 865 150 865 180 863.3C210 861.7 240 858.3 270 858.3C300 858.3 330 861.7 360 863.3C390 865 420 865 450 865C480 865 510 865 525 865L540 865L540 777L525 775.3C510 773.7 480 770.3 450 771.8C420 773.3 390 779.7 360 779.7C330 779.7 300 773.3 270 773.3C240 773.3 210 779.7 180 781.3C150 783 120 780 90 778.5C60 777 30 777 15 777L0 777Z" fill="#db1b69"></path><path d="M0 961L15 961C30 961 60 961 90 961C120 961 150 961 180 961C210 961 240 961 270 961C300 961 330 961 360 961C390 961 420 961 450 961C480 961 510 961 525 961L540 961L540 863L525 863C510 863 480 863 450 863C420 863 390 863 360 861.3C330 859.7 300 856.3 270 856.3C240 856.3 210 859.7 180 861.3C150 863 120 863 90 861.3C60 859.7 30 856.3 15 854.7L0 853Z" fill="#c62368"></path></svg>