<svg id="visual" viewBox="0 0 960 540" width="960" height="540" xmlns="http://www.w3.org/2000/svg" xmlns:xlink="http://www.w3.org/1999/xlink" version="1.1"><path d="M0 77L40 83.2C80 89.3 160 101.7 240 101.7C320 101.7 400 89.3 480 81.3C560 73.3 640 69.7 720 74.2C800 78.7 880 91.3 920 97.7L960 104L960 0L920 0C880 0 800 0 720 0C640 0 560 0 480 0C400 0 320 0 240 0C160 0 80 0 40 0L0 0Z" fill="#ff0066"></path><path d="M0 260L40 253.7C80 247.3 160 234.7 240 227.5C320 220.3 400 218.7 480 223.2C560 227.7 640 238.3 720 236.5C800 234.7 880 220.3 920 213.2L960 206L960 102L920 95.7C880 89.3 800 76.7 720 72.2C640 67.7 560 71.3 480 79.3C400 87.3 320 99.7 240 99.7C160 99.7 80 87.3 40 81.2L0 75Z" fill="#fe5634"></path><path d="M0 357L40 348C80 339 160 321 240 306.7C320 292.3 400 281.7 480 286.2C560 290.7 640 310.3 720 314.8C800 319.3 880 308.7 920 303.3L960 298L960 204L920 211.2C880 218.3 800 232.7 720 234.5C640 236.3 560 225.7 480 221.2C400 216.7 320 218.3 240 225.5C160 232.7 80 245.3 40 251.7L0 258Z" fill="#f7770f"></path><path d="M0 492L40 493C80 494 160 496 240 492.5C320 489 400 480 480 473.7C560 467.3 640 463.7 720 463.7C800 463.7 880 467.3 920 469.2L960 471L960 296L920 301.3C880 306.7 800 317.3 720 312.8C640 308.3 560 288.7 480 284.2C400 279.7 320 290.3 240 304.7C160 319 80 337 40 346L0 355Z" fill="#fe5634"></path><path d="M0 541L40 541C80 541 160 541 240 541C320 541 400 541 480 541C560 541 640 541 720 541C800 541 880 541 920 541L960 541L960 469L920 467.2C880 465.3 800 461.7 720 461.7C640 461.7 560 465.3 480 471.7C400 478 320 487 240 490.5C160 494 80 492 40 491L0 490Z" fill="#ff0066"></path></svg>