<svg id="visual" viewBox="0 0 960 540" width="960" height="540" xmlns="http://www.w3.org/2000/svg" xmlns:xlink="http://www.w3.org/1999/xlink" version="1.1"><path d="M0 33L26.7 33C53.3 33 106.7 33 160 33C213.3 33 266.7 33 320 33C373.3 33 426.7 33 480 33C533.3 33 586.7 33 640 33C693.3 33 746.7 33 800 33C853.3 33 906.7 33 933.3 33L960 33L960 0L933.3 0C906.7 0 853.3 0 800 0C746.7 0 693.3 0 640 0C586.7 0 533.3 0 480 0C426.7 0 373.3 0 320 0C266.7 0 213.3 0 160 0C106.7 0 53.3 0 26.7 0L0 0Z" fill="#c62368"></path><path d="M0 77L26.7 77C53.3 77 106.7 77 160 77C213.3 77 266.7 77 320 77C373.3 77 426.7 77 480 77C533.3 77 586.7 77 640 76C693.3 75 746.7 73 800 72C853.3 71 906.7 71 933.3 71L960 71L960 31L933.3 31C906.7 31 853.3 31 800 31C746.7 31 693.3 31 640 31C586.7 31 533.3 31 480 31C426.7 31 373.3 31 320 31C266.7 31 213.3 31 160 31C106.7 31 53.3 31 26.7 31L0 31Z" fill="#e20752"></path><path d="M0 206L26.7 203.3C53.3 200.7 106.7 195.3 160 194.5C213.3 193.7 266.7 197.3 320 197.3C373.3 197.3 426.7 193.7 480 191.8C533.3 190 586.7 190 640 188.2C693.3 186.3 746.7 182.7 800 181.8C853.3 181 906.7 183 933.3 184L960 185L960 69L933.3 69C906.7 69 853.3 69 800 70C746.7 71 693.3 73 640 74C586.7 75 533.3 75 480 75C426.7 75 373.3 75 320 75C266.7 75 213.3 75 160 75C106.7 75 53.3 75 26.7 75L0 75Z" fill="#f60031"></path><path d="M0 276L26.7 275.2C53.3 274.3 106.7 272.7 160 271.8C213.3 271 266.7 271 320 270.2C373.3 269.3 426.7 267.7 480 267.7C533.3 267.7 586.7 269.3 640 268.3C693.3 267.3 746.7 263.7 800 261.8C853.3 260 906.7 260 933.3 260L960 260L960 183L933.3 182C906.7 181 853.3 179 800 179.8C746.7 180.7 693.3 184.3 640 186.2C586.7 188 533.3 188 480 189.8C426.7 191.7 373.3 195.3 320 195.3C266.7 195.3 213.3 191.7 160 192.5C106.7 193.3 53.3 198.7 26.7 201.3L0 204Z" fill="#ff0000"></path><path d="M0 401L26.7 401C53.3 401 106.7 401 160 401.8C213.3 402.7 266.7 404.3 320 403.3C373.3 402.3 426.7 398.7 480 398.7C533.3 398.7 586.7 402.3 640 402.3C693.3 402.3 746.7 398.7 800 397.8C853.3 397 906.7 399 933.3 400L960 401L960 258L933.3 258C906.7 258 853.3 258 800 259.8C746.7 261.7 693.3 265.3 640 266.3C586.7 267.3 533.3 265.7 480 265.7C426.7 265.7 373.3 267.3 320 268.2C266.7 269 213.3 269 160 269.8C106.7 270.7 53.3 272.3 26.7 273.2L0 274Z" fill="#ff0000"></path><path d="M0 438L26.7 438C53.3 438 106.7 438 160 439C213.3 440 266.7 442 320 441.2C373.3 440.3 426.7 436.7 480 436.7C533.3 436.7 586.7 440.3 640 440.3C693.3 440.3 746.7 436.7 800 435.7C853.3 434.7 906.7 436.3 933.3 437.2L960 438L960 399L933.3 398C906.7 397 853.3 395 800 395.8C746.7 396.7 693.3 400.3 640 400.3C586.7 400.3 533.3 396.7 480 396.7C426.7 396.7 373.3 400.3 320 401.3C266.7 402.3 213.3 400.7 160 399.8C106.7 399 53.3 399 26.7 399L0 399Z" fill="#f60031"></path><path d="M0 482L26.7 482.8C53.3 483.7 106.7 485.3 160 486.2C213.3 487 266.7 487 320 486.2C373.3 485.3 426.7 483.7 480 483.7C533.3 483.7 586.7 485.3 640 486.2C693.3 487 746.7 487 800 487C853.3 487 906.7 487 933.3 487L960 487L960 436L933.3 435.2C906.7 434.3 853.3 432.7 800 433.7C746.7 434.7 693.3 438.3 640 438.3C586.7 438.3 533.3 434.7 480 434.7C426.7 434.7 373.3 438.3 320 439.2C266.7 440 213.3 438 160 437C106.7 436 53.3 436 26.7 436L0 436Z" fill="#e20752"></path><path d="M0 541L26.7 541C53.3 541 106.7 541 160 541C213.3 541 266.7 541 320 541C373.3 541 426.7 541 480 541C533.3 541 586.7 541 640 541C693.3 541 746.7 541 800 541C853.3 541 906.7 541 933.3 541L960 541L960 485L933.3 485C906.7 485 853.3 485 800 485C746.7 485 693.3 485 640 484.2C586.7 483.3 533.3 481.7 480 481.7C426.7 481.7 373.3 483.3 320 484.2C266.7 485 213.3 485 160 484.2C106.7 483.3 53.3 481.7 26.7 480.8L0 480Z" fill="#c62368"></path></svg>