<svg width="100%" height="100%" id="svg" viewBox="0 0 1440 790" xmlns="http://www.w3.org/2000/svg"><path d="M 0,800 C 0,800 0,160 0,160 C 205.71428571428572,205.71428571428572 822.8571428571429,182.85714285714286 1440,160 C 1440,160 1440,800 1440,800 Z" stroke="none" stroke-width="0" fill="#FF4A98" fill-opacity="0.265" class="path-0" style="transition-property: all; transition-timing-function: cubic-bezier(0.4, 0, 0.2, 1); transition-duration: 300ms; transition-delay: 150ms;"></path><path d="M 0,800 C 0,800 0,320 0,320 C 205.71428571428572,411.42857142857144 822.8571428571429,365.7142857142857 1440,320 C 1440,320 1440,800 1440,800 Z" stroke="none" stroke-width="0" fill="#FF4A98" fill-opacity="0.4" class="path-1" style="transition-property: all; transition-timing-function: cubic-bezier(0.4, 0, 0.2, 1); transition-duration: 300ms; transition-delay: 150ms;"></path><path d="M 0,800 C 0,800 0,480 0,480 C 205.71428571428572,617.1428571428571 822.8571428571429,548.5714285714286 1440,480 C 1440,480 1440,800 1440,800 Z" stroke="none" stroke-width="0" fill="#FF4A98" fill-opacity="0.53" class="path-2" style="transition-property: all; transition-timing-function: cubic-bezier(0.4, 0, 0.2, 1); transition-duration: 300ms; transition-delay: 150ms;"></path><path d="M 0,800 C 0,800 0,640 0,640 C 205.71428571428572,822.8571428571429 822.8571428571429,731.4285714285714 1440,640 C 1440,640 1440,800 1440,800 Z" stroke="none" stroke-width="0" fill="#FF4A98" fill-opacity="1" class="path-3" style="transition-property: all; transition-timing-function: cubic-bezier(0.4, 0, 0.2, 1); transition-duration: 300ms; transition-delay: 150ms;"></path></svg>